<?xml version="1.0" standalone="no"?>
<!DOCTYPE svg PUBLIC "-//W3C//DTD SVG 20010904//EN"
 "http://www.w3.org/TR/2001/REC-SVG-20010904/DTD/svg10.dtd">
<svg version="1.0" xmlns="http://www.w3.org/2000/svg"
 width="260.000000pt" height="260.000000pt" viewBox="0 0 260.000000 260.000000"
 preserveAspectRatio="xMidYMid meet">
<metadata>
Created by potrace 1.11, written by Peter Selinger 2001-2013
</metadata>
<g transform="translate(0.000000,260.000000) scale(0.100000,-0.100000)"
fill="#000000" stroke="none">
<path d="M1240 2560 c-78 -41 -168 -68 -290 -86 -57 -9 -128 -25 -156 -35 -71
-27 -154 -89 -184 -138 -20 -33 -34 -43 -68 -52 -58 -16 -149 -76 -196 -130
-20 -24 -58 -87 -83 -139 -57 -120 -91 -170 -166 -247 l-60 -61 12 -46 c15
-62 13 -227 -4 -306 -19 -86 -19 -209 1 -276 8 -30 31 -77 50 -105 27 -40 34
-61 34 -99 0 -61 31 -162 68 -220 16 -25 69 -85 118 -135 99 -99 143 -158 180
-240 22 -47 30 -55 52 -55 68 -1 174 -34 292 -91 69 -34 143 -68 165 -76 55
-21 188 -20 247 1 36 13 52 14 75 5 56 -21 136 -29 203 -19 46 7 100 27 185
70 145 72 213 96 297 105 l64 7 43 84 c34 66 67 109 161 208 143 150 171 202
178 321 3 65 9 86 29 113 76 102 99 231 68 382 -21 100 -24 267 -6 329 l12 44
-60 61 c-75 75 -89 94 -153 221 -28 55 -65 120 -82 143 -43 60 -135 127 -196
143 -38 10 -56 21 -70 43 -24 39 -85 97 -131 124 -55 33 -111 50 -207 63 -113
15 -244 53 -308 90 -28 16 -53 29 -55 29 -2 -1 -29 -14 -59 -30z m218 -60 c35
-11 109 -28 165 -36 123 -18 170 -30 220 -56 48 -24 120 -89 147 -132 15 -25
31 -35 70 -45 63 -16 158 -85 198 -143 16 -24 55 -94 86 -155 43 -84 75 -132
127 -187 l70 -75 -13 -85 c-12 -87 -8 -146 23 -350 17 -114 -10 -223 -77 -313
-18 -24 -24 -44 -24 -86 0 -62 -23 -147 -53 -197 -11 -19 -68 -85 -127 -145
-94 -99 -140 -161 -190 -260 -14 -26 -22 -31 -71 -36 -80 -9 -148 -33 -297
-107 -127 -63 -136 -66 -220 -70 -68 -3 -99 0 -142 15 -53 18 -57 18 -100 2
-52 -21 -165 -24 -225 -8 -22 6 -92 37 -155 69 -131 66 -232 100 -295 100 -43
0 -44 1 -69 55 -38 84 -80 139 -186 245 -125 126 -163 196 -169 314 -3 71 -7
84 -32 116 -71 88 -92 213 -63 367 20 108 23 277 7 334 -11 36 -10 38 39 85
63 62 124 154 178 269 54 114 138 202 224 234 31 12 62 21 69 21 7 0 23 19 37
41 31 51 122 121 195 148 29 11 91 25 137 31 130 16 183 30 271 75 l82 41 50
-27 c28 -15 79 -37 113 -49z"/>
<path d="M1253 2496 c-72 -42 -150 -65 -280 -86 -175 -28 -259 -71 -325 -165
-18 -25 -39 -45 -48 -45 -9 0 -44 -14 -78 -31 -81 -40 -146 -113 -200 -224
-56 -113 -91 -166 -159 -236 l-55 -57 11 -51 c15 -72 14 -185 -4 -278 -31
-161 -12 -291 54 -373 25 -31 29 -46 33 -110 6 -115 42 -183 162 -304 96 -96
145 -162 180 -242 18 -41 18 -41 83 -48 77 -8 153 -36 292 -107 101 -52 107
-54 200 -57 73 -3 106 0 136 12 36 15 42 15 88 0 36 -12 73 -15 137 -12 83 4
94 7 226 70 162 77 184 85 264 94 l60 7 42 79 c31 60 68 108 155 199 134 140
163 192 171 309 4 58 10 82 28 106 67 88 88 209 60 355 -18 98 -21 256 -5 313
11 38 10 39 -45 95 -69 69 -91 101 -155 227 -28 54 -65 117 -83 138 -39 47
-138 113 -183 122 -23 4 -42 19 -69 55 -66 88 -165 137 -321 159 -106 14 -208
45 -272 81 -29 16 -54 29 -55 29 -2 0 -22 -11 -45 -24z m-69 -213 c3 -10 8
-36 11 -58 4 -22 9 -48 12 -57 3 -12 -1 -18 -11 -18 -11 0 -18 14 -23 43 l-8
42 -5 -45 c-7 -62 -33 -67 -56 -10 -20 51 -28 46 -15 -9 8 -36 7 -42 -7 -39
-22 4 -48 128 -30 140 24 15 34 8 55 -34 l22 -43 0 42 c1 29 6 45 19 52 24 15
30 13 36 -6z m153 -40 c12 -32 25 -66 29 -75 4 -13 1 -18 -11 -18 -9 0 -19 9
-22 20 -8 28 -56 27 -76 -2 -22 -33 -33 -14 -17 30 45 125 63 133 97 45z m160
31 c32 -20 37 -49 16 -92 -17 -35 -20 -37 -65 -36 -26 0 -50 3 -54 6 -3 4 0
38 6 77 l13 70 31 -6 c17 -3 41 -12 53 -19z m103 -26 c-1 -33 -39 -133 -51
-133 -18 0 -18 8 5 83 11 36 25 62 33 62 7 0 13 -6 13 -12z m-587 -63 c31 -76
31 -75 13 -75 -8 0 -21 18 -30 40 -16 40 -32 56 -22 23 16 -59 17 -81 1 -86
-10 -5 -23 6 -42 33 -31 49 -40 46 -17 -4 13 -27 15 -39 7 -47 -9 -9 -20 6
-42 56 -24 53 -28 70 -19 77 22 13 32 9 61 -24 l29 -33 -7 44 c-6 44 3 60 31
61 6 0 22 -29 37 -65z m655 17 c4 -37 5 -37 37 -16 14 9 32 13 42 10 14 -6 8
-13 -30 -38 -27 -17 -50 -41 -53 -54 -6 -23 -23 -31 -37 -18 -3 4 0 18 7 33
10 18 11 41 6 74 -6 41 -5 47 9 45 10 -2 17 -16 19 -36z m165 -59 c3 -5 -2
-43 -10 -86 -13 -64 -18 -75 -30 -65 -8 6 -12 17 -9 24 9 23 -30 47 -63 39
-47 -10 -38 9 26 54 55 40 77 49 86 34z m-1006 -44 c68 -44 81 -65 34 -56 -36
7 -71 -16 -64 -42 3 -10 -2 -21 -10 -24 -12 -4 -19 11 -32 69 -15 67 -14 94 2
94 4 0 35 -19 70 -41z m1108 -30 c4 -5 -1 -19 -11 -30 -16 -18 -16 -20 1 -39
l18 -20 23 21 c14 13 24 17 28 10 10 -15 -6 -40 -52 -84 -43 -42 -67 -36 -37
9 13 20 14 28 4 40 -17 20 -35 17 -53 -8 -12 -17 -19 -19 -28 -10 -9 9 0 24
38 66 52 58 59 62 69 45z m-1220 -59 c38 -39 46 -53 37 -62 -9 -9 -17 -7 -35
10 l-24 22 -18 -20 c-18 -20 -18 -21 4 -44 16 -17 19 -26 11 -31 -16 -10 -115
89 -105 105 5 8 13 6 29 -9 l23 -21 18 20 c17 19 17 21 1 39 -17 18 -15 41 2
41 4 0 30 -22 57 -50z m830 -40 c19 -16 19 -30 0 -30 -13 0 -14 -4 -5 -20 6
-11 8 -20 5 -20 -4 0 -3 -6 2 -12 5 -9 9 -3 13 17 6 30 6 30 65 27 54 -3 105
-26 90 -40 -2 -2 7 -19 20 -37 14 -17 25 -39 25 -48 0 -12 9 -17 28 -17 33 0
75 -27 69 -44 -3 -7 1 -23 9 -37 18 -33 17 -38 -5 -32 -11 3 -17 11 -15 17 3
7 -2 19 -11 26 -10 8 -15 9 -15 1 0 -6 5 -11 10 -11 18 0 10 -17 -13 -27 -15
-7 -29 -8 -38 -2 -21 13 -29 11 -23 -5 3 -8 12 -12 21 -9 13 5 14 3 3 -18
l-12 -24 21 23 c24 24 62 29 83 10 8 -7 27 -20 43 -28 28 -15 30 -20 32 -78 1
-58 0 -61 -18 -52 -22 12 -59 -3 -59 -23 0 -9 3 -8 9 1 13 21 65 11 70 -13 2
-11 14 -33 28 -49 13 -16 23 -38 21 -50 -4 -27 -38 -35 -39 -9 -1 17 -1 17 -6
0 -3 -11 -11 -16 -19 -13 -9 3 -12 1 -9 -4 13 -20 -14 -9 -29 12 -13 18 -16
19 -16 5 0 -20 -21 -22 -38 -5 -19 19 -14 47 13 72 l25 23 -25 23 c-19 18 -22
26 -13 32 9 5 6 8 -8 8 -31 0 -48 25 -41 60 5 23 1 35 -15 50 -12 11 -26 20
-30 20 -5 0 -6 5 -2 11 4 7 0 9 -14 5 -16 -5 -22 0 -31 25 -6 17 -8 35 -5 41
3 5 0 15 -6 23 -19 23 -2 55 33 62 26 5 28 7 12 13 -13 5 -27 1 -40 -11 -19
-17 -49 -13 -45 7 1 5 -4 10 -10 12 -9 3 -9 -1 -1 -17 7 -11 16 -21 21 -21 6
0 10 -6 10 -14 0 -11 -8 -10 -36 5 -20 10 -42 20 -47 22 -6 2 -11 16 -12 32 0
24 -6 31 -34 39 -24 7 -37 19 -48 43 -10 24 -22 35 -43 40 -30 5 -36 13 -23
27 11 10 101 0 118 -14z m-422 -35 c-33 -31 -61 -49 -100 -60 -54 -16 -158
-95 -135 -103 6 -2 26 13 44 33 24 26 47 39 88 49 30 7 64 17 75 21 12 5 3
-10 -25 -39 -49 -52 -69 -62 -144 -77 -28 -5 -60 -16 -73 -24 -21 -14 -83
-109 -83 -128 0 -19 23 9 40 48 16 36 25 46 57 54 21 6 45 11 54 11 9 0 22 7
29 15 7 8 18 15 24 15 6 0 2 -8 -10 -18 -11 -9 -31 -34 -43 -54 -16 -27 -40
-46 -87 -69 -61 -30 -94 -60 -94 -84 0 -5 5 -2 11 8 9 15 38 32 114 66 6 2 2
-5 -7 -16 -10 -10 -23 -34 -29 -52 -6 -18 -31 -47 -57 -67 -26 -19 -54 -47
-64 -62 -19 -29 -25 -92 -8 -92 6 0 10 9 10 20 0 31 24 71 66 110 35 33 36 34
31 10 -4 -14 -7 -39 -7 -57 0 -21 -13 -47 -40 -82 -34 -42 -40 -58 -40 -97 0
-30 8 -59 21 -81 22 -36 38 -39 20 -4 -18 33 -16 87 4 132 l19 41 12 -33 c17
-46 17 -99 0 -146 -14 -41 -10 -99 11 -138 16 -29 73 -81 73 -66 0 6 -11 22
-23 34 -39 36 -47 60 -40 117 l6 52 19 -23 c34 -43 58 -98 58 -131 0 -59 19
-106 54 -133 44 -34 56 -32 22 4 -18 18 -33 50 -41 85 -14 58 -7 73 14 33 7
-12 28 -33 47 -47 22 -16 38 -39 46 -65 6 -22 25 -55 41 -72 34 -37 46 -37 24
-1 -8 12 -18 33 -21 45 -7 20 -5 21 26 11 69 -22 79 -29 96 -59 39 -72 49 -79
109 -79 45 0 63 -5 90 -26 19 -14 33 -34 33 -46 0 -21 -1 -21 -27 5 -30 28
-97 60 -106 50 -3 -3 -35 0 -70 7 -54 10 -69 9 -102 -4 -59 -25 -105 -20 -160
16 l-48 32 49 14 c26 7 63 12 81 10 18 -2 33 -3 33 -1 0 1 -14 10 -31 19 -29
15 -35 15 -76 -1 -59 -23 -104 -10 -158 45 l-39 40 51 0 c36 0 60 -7 84 -23
56 -38 63 -41 55 -29 -25 40 -143 92 -209 92 -31 0 -54 26 -71 82 l-13 45 49
-21 c32 -13 56 -32 69 -53 19 -30 47 -53 64 -53 18 0 -110 125 -142 140 -48
22 -73 49 -83 92 -4 18 -11 42 -16 53 -8 20 -8 20 21 1 52 -33 77 -60 98 -106
15 -31 22 -40 25 -27 4 19 -37 95 -62 116 -8 7 -12 19 -9 27 8 22 -27 193 -48
236 -26 52 -24 86 10 136 l29 44 6 -54 c4 -31 3 -66 -3 -81 -6 -15 -7 -27 -2
-27 4 0 16 24 26 54 17 48 17 62 6 124 -14 80 -11 89 43 141 l36 35 0 -39 c0
-24 -11 -58 -31 -93 -16 -29 -29 -58 -27 -63 2 -5 22 25 46 67 30 56 42 88 42
118 0 58 28 109 67 121 17 6 41 19 53 30 35 32 -32 -94 -69 -129 -17 -17 -31
-33 -31 -38 0 -11 133 129 144 152 9 20 40 35 101 49 72 16 75 13 28 -34z
m461 30 c3 -8 1 -15 -4 -15 -6 0 -10 7 -10 15 0 8 2 15 4 15 2 0 6 -7 10 -15z
m-990 -70 c52 -40 58 -66 24 -102 -28 -30 -46 -29 -89 3 -19 14 -41 29 -49 34
-11 7 -12 12 -3 20 8 9 22 5 58 -20 37 -25 49 -29 60 -20 24 20 18 37 -22 62
-20 13 -41 26 -46 29 -10 7 -1 29 12 29 5 0 29 -16 55 -35z m1518 -36 c14 -18
18 -34 13 -48 -9 -29 -30 -21 -30 12 -1 30 -9 42 -23 33 -7 -4 -6 -19 1 -41 9
-31 8 -38 -10 -56 -26 -27 -58 -18 -78 22 -12 22 -13 34 -5 49 15 28 34 25 26
-3 -7 -30 17 -67 34 -51 8 8 8 19 0 38 -13 36 -13 42 6 61 22 21 42 16 66 -16z
m-1548 -129 c4 -5 5 -13 2 -19 -5 -7 -21 -4 -49 10 l-42 20 39 -34 c49 -42 42
-61 -18 -52 l-41 6 39 -22 c25 -13 35 -24 28 -31 -6 -6 -32 1 -76 21 -61 28
-66 32 -56 51 12 23 12 23 63 11 21 -5 37 -5 37 0 0 5 -3 9 -7 9 -5 0 -21 12
-36 25 -23 20 -26 28 -17 44 10 19 11 19 68 -6 31 -14 61 -29 66 -33z m746
-135 c-4 -82 -6 -93 -12 -60 -10 51 -10 169 -1 179 14 14 19 -22 13 -119z
m883 111 c3 -8 -19 -37 -52 -70 -48 -47 -59 -55 -65 -41 -3 10 -1 24 5 31 17
21 3 62 -23 66 -12 2 -23 9 -26 16 -6 18 154 17 161 -2z m-1019 -137 c47 -89
53 -105 36 -94 -5 3 -10 2 -10 -3 0 -19 14 -21 43 -5 20 10 45 14 73 10 l42
-4 27 73 c15 41 31 74 37 74 12 0 2 -31 -33 -102 -25 -49 -26 -57 -12 -62 9
-4 17 -5 18 -4 1 2 21 31 44 66 23 34 46 62 51 62 18 0 10 -15 -40 -73 -29
-34 -47 -64 -43 -72 3 -8 7 -15 10 -15 3 0 30 23 61 50 48 43 82 62 82 46 0
-3 -29 -26 -65 -51 -36 -26 -65 -49 -65 -51 0 -3 6 -15 14 -27 7 -12 12 -34
11 -49 -2 -27 -1 -27 77 -34 43 -4 81 -11 85 -17 6 -10 -52 -6 -138 9 -26 4
-30 3 -19 -5 13 -9 13 -11 1 -11 -26 0 1 -17 55 -34 52 -17 99 -45 76 -46 -7
0 -42 13 -78 30 -61 27 -84 31 -84 11 0 -4 30 -29 68 -56 56 -41 64 -50 47
-54 -21 -6 -22 -11 -24 -148 l-1 -53 -95 0 -94 0 -3 122 -3 122 -25 0 -25 0
-3 -122 -3 -123 -97 3 -97 3 0 98 c0 87 -2 97 -18 97 -27 0 -13 16 56 61 l62
41 -43 -42 c-39 -38 -42 -44 -36 -80 6 -37 9 -40 40 -40 40 0 52 -15 24 -30
-28 -15 -27 -64 2 -84 20 -14 24 -14 38 -1 21 21 18 94 -6 133 l-18 32 31 31
31 32 -38 36 c-20 20 -39 42 -42 50 -3 12 -12 12 -53 -2 -57 -20 -55 -20 -55
-8 0 5 15 12 33 16 65 13 67 15 67 51 0 20 5 44 10 54 9 18 0 25 -89 69 -101
51 -119 65 -102 76 6 3 53 -22 106 -56 75 -48 99 -59 108 -50 9 10 2 21 -33
51 -25 22 -40 40 -34 40 5 0 25 -16 44 -35 55 -56 56 -40 3 23 -61 70 -68 82
-51 82 7 0 28 -23 46 -51 18 -28 36 -48 39 -45 3 3 -18 41 -46 85 -29 44 -50
85 -46 91 10 16 17 7 69 -91z m271 -13 c-30 -47 -57 -86 -60 -86 -8 0 75 163
94 184 13 15 17 16 19 3 2 -8 -22 -53 -53 -101z m-110 -16 l-14 -55 6 75 c6
80 16 114 20 65 2 -16 -4 -55 -12 -85z m-61 78 c3 -13 5 -45 5 -73 l-1 -50
-14 60 c-7 33 -13 66 -14 73 0 21 17 13 24 -10z m-57 -64 c31 -84 27 -89 -12
-14 -38 72 -41 84 -22 78 6 -3 22 -31 34 -64z m1023 16 c0 -13 -14 -27 -40
-40 -40 -20 -51 -32 -27 -29 6 1 29 1 50 0 32 -1 37 -4 37 -24 0 -21 -7 -25
-65 -36 -36 -6 -70 -9 -75 -6 -21 13 -8 23 38 31 l47 8 -49 6 c-27 3 -51 10
-53 17 -3 7 17 24 44 38 26 14 39 24 28 21 -76 -17 -85 -17 -85 -3 0 11 18 19
58 27 31 6 62 13 67 14 16 5 25 -4 25 -24z m-987 -45 l6 -40 -14 35 c-16 41
-19 69 -6 55 5 -6 11 -28 14 -50z m124 48 c-3 -5 -10 -28 -17 -52 -6 -23 -13
-41 -16 -38 -8 8 18 97 28 97 5 0 7 -3 5 -7z m-928 -65 c28 11 51 19 51 16 0
-19 -24 -44 -51 -53 -27 -9 -30 -13 -19 -26 7 -8 21 -15 31 -15 11 0 19 -7 19
-16 0 -14 -8 -16 -61 -10 -33 4 -67 10 -75 13 -24 9 -9 28 20 25 32 -3 33 2 1
39 -14 18 -22 36 -18 46 5 13 10 11 29 -12 l22 -28 51 21z m696 -54 c33 -29
35 -33 10 -17 -72 44 -105 69 -105 81 0 15 32 -6 95 -64z m493 64 c-5 -14
-178 -112 -185 -105 -5 5 166 117 179 117 5 0 8 -6 6 -12z m-178 -43 c-18 -19
-36 -32 -39 -30 -6 7 50 65 63 65 5 0 -5 -16 -24 -35z m-315 -83 c-2 -3 -24 2
-47 11 -24 9 -56 21 -71 27 -16 5 -26 14 -22 19 3 6 36 -4 75 -21 39 -17 68
-33 65 -36z m450 48 c-4 -7 -72 -33 -125 -47 -8 -2 14 11 50 30 60 32 88 38
75 17z m-485 -56 l35 -14 -40 6 c-22 3 -44 10 -49 15 -14 13 13 10 54 -7z
m445 7 c-6 -5 -28 -12 -50 -15 l-40 -6 35 14 c41 17 68 20 55 7z m715 -34 c0
-57 -27 -86 -65 -69 -14 6 -26 21 -26 32 -1 11 -2 26 -3 33 0 6 -13 13 -28 15
-16 2 -28 9 -28 18 0 11 17 14 75 14 l75 0 0 -43z m-1205 9 l60 -14 -57 -1
c-61 -1 -91 6 -82 20 6 11 6 11 79 -5z m553 2 c-3 -9 -28 -14 -74 -14 l-69 -2
60 13 c79 17 87 17 83 3z m-1140 -15 c2 -9 -10 -13 -43 -13 -55 0 -52 -15 5
-24 56 -9 52 -32 -7 -50 l-48 -15 48 0 c35 -1 47 -5 47 -16 0 -12 -15 -15 -76
-15 -72 0 -75 1 -72 22 2 16 13 25 40 33 53 15 54 22 3 29 -39 6 -45 10 -45
31 0 22 5 24 53 28 74 5 90 4 95 -10z m190 -98 c2 -22 9 -48 14 -57 15 -30
-11 -21 -48 16 -37 37 -44 74 -22 121 l11 25 20 -32 c11 -18 22 -51 25 -73z
m422 76 c39 -6 32 -8 -59 -14 -57 -3 -108 -4 -113 -1 -35 22 72 31 172 15z
m600 0 c0 -19 -18 -21 -116 -13 -84 6 -92 8 -54 13 73 10 170 10 170 0z m185
-1 c15 24 22 7 8 -19 l-17 -29 -13 25 c-17 32 -16 38 1 24 10 -8 16 -9 21 -1z
m97 -12 c-5 -5 -17 -6 -26 -2 -13 5 -14 9 -5 14 16 11 43 0 31 -12z m-34 -14
c12 -8 22 -24 22 -35 0 -11 7 -31 16 -44 20 -30 12 -71 -16 -80 -11 -3 -19 -9
-18 -13 1 -8 -18 -60 -32 -84 -6 -11 -6 -19 0 -23 17 -10 11 -50 -10 -68 -11
-9 -20 -14 -20 -11 0 4 -7 1 -16 -7 -13 -10 -17 -10 -24 2 -6 8 -6 15 0 17 6
2 15 13 21 23 9 18 8 19 -10 7 -12 -7 -21 -16 -21 -21 0 -4 -5 -5 -10 -2 -8 5
-7 11 1 21 17 20 5 28 -14 9 -9 -8 -22 -15 -29 -15 -7 0 -20 -5 -28 -10 -11
-7 -6 -8 16 -4 21 4 36 1 47 -11 22 -22 21 -38 -3 -60 -12 -11 -18 -25 -15
-36 10 -30 -13 -62 -41 -56 -15 2 -30 -3 -40 -14 -9 -10 -20 -17 -24 -14 -10
6 -48 -37 -68 -76 -12 -25 -25 -35 -46 -37 -16 -2 -26 1 -22 6 6 11 -24 8 -73
-7 -30 -9 -37 -7 -62 14 -16 13 -25 27 -19 30 5 3 10 17 10 31 0 16 8 28 25
36 14 6 25 15 25 20 0 5 5 6 10 3 6 -3 10 3 10 13 0 28 48 46 84 32 30 -11 47
1 61 43 4 9 11 14 17 11 7 -5 9 -1 5 9 -8 22 18 47 50 47 32 0 52 25 53 64 0
33 34 76 61 76 9 0 23 7 30 16 9 12 24 15 51 11 21 -3 36 -1 32 4 -9 15 -71
10 -88 -7 -15 -14 -16 -12 -17 28 -1 24 0 52 1 62 2 18 78 116 90 116 3 0 16
-7 28 -16z m-815 -4 c-36 -14 -150 -24 -138 -12 9 10 56 17 130 20 27 1 28 0
8 -8z m413 -30 c15 -6 25 -13 22 -15 -3 -3 -22 1 -44 9 -21 8 -31 15 -22 15 9
1 29 -4 44 -9z m-386 -5 c0 -8 -119 -65 -137 -65 -29 0 -2 17 67 44 75 29 70
27 70 21z m1086 -15 c16 0 24 -6 24 -16 0 -15 -9 -16 -71 -11 -77 7 -85 9 -74
28 5 7 23 9 53 5 25 -3 55 -6 68 -6z m-1076 -4 c0 -10 -172 -116 -187 -116
-30 0 8 30 96 75 95 48 91 47 91 41z m480 -106 c0 -20 -29 -9 -106 41 -113 73
-113 78 4 20 56 -28 102 -56 102 -61z m-1146 19 c15 -35 11 -62 -10 -80 -21
-17 -29 -3 -16 26 13 28 6 55 -14 55 -9 0 -14 -11 -14 -31 0 -62 -34 -87 -72
-52 -20 18 -24 63 -6 81 20 20 28 14 25 -20 -3 -45 17 -52 21 -8 4 44 18 60
49 60 17 0 28 -8 37 -31z m1761 15 c-3 -50 -19 -104 -32 -104 -9 0 -13 8 -11
22 3 22 2 23 -84 42 -16 4 -28 13 -28 22 0 12 6 15 23 11 12 -4 41 -9 65 -13
39 -6 42 -5 42 16 0 13 5 20 13 18 6 -3 12 -9 12 -14z m-945 -124 c0 -67 -4
-110 -10 -110 -6 0 -10 38 -10 94 0 85 5 126 16 126 2 0 4 -49 4 -110z m-692
-241 c15 0 35 -4 45 -7 15 -7 13 -12 -17 -41 -33 -32 -34 -37 -29 -82 3 -27 3
-49 -1 -49 -4 0 -24 9 -44 19 -36 19 -38 19 -72 0 -54 -28 -60 -25 -54 25 6
40 3 49 -25 84 -31 40 -31 40 -8 46 12 3 32 6 44 6 16 0 30 13 49 46 l27 46
28 -46 c23 -36 35 -46 57 -47z m1467 52 c15 -34 23 -41 59 -46 59 -10 61 -14
25 -51 -30 -31 -32 -36 -26 -83 3 -28 4 -51 1 -51 -3 0 -23 9 -45 20 l-40 21
-46 -21 -46 -20 6 47 c5 45 3 51 -30 85 -39 40 -38 41 30 53 31 5 41 13 57 45
11 22 24 40 29 40 4 0 16 -18 26 -39z m-906 -221 c-13 -16 -25 -28 -27 -25 -7
7 27 55 39 55 5 0 0 -13 -12 -30z m-211 -86 c30 -34 27 -79 -4 -78 -19 0 -21
-2 -11 -23 7 -16 7 -30 -1 -48 -26 -56 -111 -58 -156 -4 -28 33 -32 50 -16 80
9 15 15 17 30 9 23 -12 25 -7 9 21 -8 16 -7 26 6 45 32 49 99 48 143 -2z m816
-67 c21 -49 36 -90 34 -92 -2 -1 -13 -8 -26 -14 -20 -11 -26 -10 -39 6 -13 16
-14 16 -9 1 3 -12 -3 -24 -20 -34 -23 -15 -26 -15 -44 1 -18 16 -18 16 -14 -2
4 -14 -2 -23 -20 -31 -22 -10 -27 -9 -36 9 -18 33 -81 182 -78 184 2 1 19 10
38 20 l34 18 32 -38 32 -39 -5 47 c-5 46 -5 47 28 61 43 18 45 16 93 -97z
m-649 -15 l11 -43 17 35 c13 29 22 36 44 36 54 0 57 -9 43 -101 -16 -105 -25
-129 -48 -129 -25 0 -42 19 -35 39 4 10 -1 7 -13 -6 -21 -26 -64 -22 -64 5 0
12 -3 13 -12 4 -14 -14 -54 -16 -63 -2 -6 9 22 186 32 203 2 4 21 7 41 5 34
-3 38 -6 47 -46z m375 29 c0 -4 -13 -25 -30 -46 -16 -21 -30 -40 -30 -42 0 -3
21 -29 46 -59 l46 -54 -27 -10 c-42 -16 -51 -13 -84 32 -32 44 -43 39 -38 -17
2 -27 -1 -30 -30 -33 -18 -2 -33 -2 -34 0 0 2 -6 50 -13 107 -12 103 -12 103
11 114 27 12 53 -5 53 -37 0 -17 5 -15 31 17 24 30 37 37 65 37 19 0 34 -4 34
-9z"/>
<path d="M1290 2253 c0 -6 -3 -18 -6 -27 -4 -11 -1 -16 10 -16 9 0 16 6 16 13
0 16 -20 46 -20 30z"/>
<path d="M1435 2237 c-4 -18 -9 -40 -11 -49 -4 -14 1 -18 25 -18 24 0 32 5 37
24 9 36 2 58 -23 67 -19 7 -22 4 -28 -24z"/>
<path d="M1776 2095 c-17 -13 -18 -15 -2 -21 20 -8 29 -1 24 20 -3 13 -6 13
-22 1z"/>
<path d="M775 2078 c9 -29 11 -31 24 -23 16 9 13 19 -10 33 -19 12 -20 12 -14
-10z"/>
<path d="M1688 1858 c3 -12 7 -17 10 -10 2 7 9 9 15 5 7 -4 6 1 -2 10 -19 24
-30 21 -23 -5z"/>
<path d="M1666 1835 c4 -8 10 -15 15 -15 4 0 6 7 3 15 -4 8 -10 15 -15 15 -4
0 -6 -7 -3 -15z"/>
<path d="M1786 1705 c4 -8 11 -15 16 -15 6 0 5 6 -2 15 -7 8 -14 15 -16 15 -2
0 -1 -7 2 -15z"/>
<path d="M1910 1550 c0 -7 -7 -10 -15 -6 -18 6 -20 -10 -3 -20 6 -4 14 -2 16
4 2 7 8 10 13 6 5 -3 9 -1 9 5 0 5 -4 13 -10 16 -5 3 -10 1 -10 -5z"/>
<path d="M1850 1525 c7 -8 17 -15 22 -15 6 0 5 7 -2 15 -7 8 -17 15 -22 15 -6
0 -5 -7 2 -15z"/>
<path d="M721 1479 c-13 -39 -14 -46 -2 -33 9 10 24 64 17 64 -2 0 -9 -14 -15
-31z"/>
<path d="M2123 1691 c-17 -5 -20 -10 -13 -21 8 -13 11 -13 27 2 20 21 16 27
-14 19z"/>
<path d="M1272 1459 c-74 -15 -126 -103 -103 -172 39 -117 201 -134 256 -27
54 105 -37 223 -153 199z m3 -39 c-10 -11 -23 -20 -28 -20 -6 0 -2 9 8 20 10
11 23 20 28 20 6 0 2 -9 -8 -20z m54 7 c-2 -2 -21 -15 -41 -30 -21 -16 -38
-23 -38 -18 0 12 72 63 79 56 2 -3 2 -6 0 -8z m38 -16 c-3 -13 1 -21 14 -24
25 -7 24 -27 -1 -34 -33 -9 -23 -23 12 -16 22 4 29 3 24 -5 -4 -7 -14 -12 -22
-12 -8 0 -24 -10 -36 -22 l-21 -21 22 -9 c27 -10 18 -31 -10 -23 -13 4 -19 2
-19 -9 0 -9 -5 -16 -10 -16 -5 0 -9 3 -9 8 3 19 -2 23 -16 12 -24 -20 -28 -6
-5 15 11 10 20 13 20 7 0 -7 5 -12 10 -12 6 0 5 8 -2 20 -12 19 -13 19 -36 -6
-13 -14 -31 -24 -40 -22 -22 4 -72 98 -52 98 6 0 10 -7 10 -15 0 -23 16 -18
28 11 10 20 17 24 33 19 14 -5 19 -3 15 3 -3 6 -2 13 4 17 5 3 10 1 10 -5 0
-6 5 -8 12 -4 8 5 9 2 5 -9 -4 -10 -1 -28 5 -42 11 -25 28 -34 28 -15 0 6 -4
10 -10 10 -18 0 -10 27 13 44 13 10 17 19 11 22 -13 6 -6 54 8 54 6 0 8 -9 5
-19z m-42 -20 c-3 -6 -11 -11 -17 -11 -6 0 -6 6 2 15 14 17 26 13 15 -4z m-85
-10 c0 -5 -7 -12 -16 -15 -21 -8 -24 -8 -24 5 0 5 5 7 10 4 6 -3 10 -1 10 4 0
6 5 11 10 11 6 0 10 -4 10 -9z m158 -99 c6 -18 -15 -14 -22 4 -4 10 -1 14 6
12 6 -2 14 -10 16 -16z"/>
<path d="M1231 1300 c-8 -26 -8 -32 6 -37 19 -8 67 43 56 60 -5 8 -8 7 -11 -3
-6 -17 -28 -40 -38 -40 -4 0 0 8 9 18 10 10 14 22 10 25 -13 13 -21 7 -32 -23z"/>
<path d="M1388 1206 l-26 -23 29 -30 30 -29 -22 -48 c-34 -77 -9 -154 39 -120
29 20 30 69 2 84 -28 15 -16 30 24 30 31 0 34 2 40 42 7 40 5 43 -36 79 -24
21 -45 38 -48 38 -3 0 -17 -10 -32 -23z"/>
<path d="M2202 1348 c5 -34 38 -37 38 -4 0 20 -5 26 -21 26 -15 0 -20 -5 -17
-22z"/>
<path d="M1861 1181 c-1 -24 -1 -24 -22 -5 -21 19 -21 19 -8 -9 8 -17 16 -24
23 -18 6 5 20 5 31 0 31 -12 42 -10 49 7 6 15 4 15 -10 3 -13 -10 -18 -11 -21
-2 -2 7 -10 10 -18 7 -8 -4 -15 3 -18 18 l-4 23 -2 -24z"/>
<path d="M1764 1018 c4 -18 28 -16 34 2 4 13 3 13 -10 2 -11 -9 -18 -9 -21 -2
-3 6 -4 5 -3 -2z"/>
<path d="M1646 870 c-38 -29 -39 -30 -14 -30 16 0 34 -10 45 -24 19 -24 20
-24 53 18 15 19 14 19 -12 2 -15 -10 -29 -13 -32 -8 -3 6 1 13 10 16 9 4 14 9
11 13 -4 3 -14 0 -22 -7 -13 -11 -18 -11 -28 0 -7 7 -7 10 -1 7 6 -4 16 5 22
18 7 14 11 25 9 25 -1 0 -20 -14 -41 -30z"/>
<path d="M1488 771 c8 -4 14 -12 13 -17 0 -19 37 -66 43 -55 4 6 2 11 -3 11
-6 0 -11 7 -11 15 0 8 -4 15 -10 15 -5 0 -10 9 -10 20 0 12 -7 20 -17 20 -14
0 -15 -2 -5 -9z"/>
<path d="M847 562 c-26 -28 -21 -51 19 -88 24 -21 34 -38 31 -48 -13 -32 -67
-12 -67 25 0 14 -19 29 -36 29 -3 0 -4 -14 -2 -32 6 -59 102 -97 134 -53 23
31 16 57 -23 97 -28 29 -34 41 -26 49 14 14 64 -14 60 -33 -1 -7 6 -14 16 -16
13 -3 17 3 17 22 0 19 -9 32 -32 46 -41 25 -70 25 -91 2z"/>
<path d="M900 515 c7 -9 15 -13 17 -11 7 7 -7 26 -19 26 -6 0 -6 -6 2 -15z"/>
<path d="M840 456 c0 -17 36 -40 43 -29 3 5 -6 16 -19 26 -20 15 -24 16 -24 3z"/>
<path d="M1693 568 c-16 -8 -21 -17 -18 -32 8 -43 15 -106 11 -106 -2 0 -21
23 -42 50 -30 40 -42 49 -59 44 -11 -3 -23 -9 -28 -13 -5 -5 54 -162 68 -179
1 -1 9 0 18 4 14 5 13 12 -9 61 -34 79 -30 85 16 22 45 -59 49 -62 68 -50 10
6 11 21 3 71 -11 67 -8 89 8 49 36 -95 50 -115 65 -91 6 10 -64 182 -73 181
-3 0 -16 -5 -28 -11z"/>
<path d="M1056 483 c-26 -134 -28 -155 -18 -165 17 -17 22 -7 35 68 l12 69 10
-75 c13 -97 32 -101 75 -15 30 60 30 60 25 20 -3 -22 -8 -52 -11 -67 -5 -23
-2 -28 13 -28 16 0 21 13 32 78 7 42 14 84 17 93 3 12 -4 18 -26 21 -29 4 -32
1 -57 -56 -25 -54 -28 -57 -34 -35 -4 13 -7 43 -8 67 -1 29 -5 42 -15 42 -8 0
-21 3 -29 6 -11 4 -17 -3 -21 -23z"/>
<path d="M1463 492 c-13 -2 -37 -23 -55 -48 -27 -38 -33 -42 -39 -27 -4 10 -8
28 -8 41 -1 15 -7 22 -22 22 -18 0 -20 -4 -15 -37 3 -21 8 -63 12 -93 8 -66
10 -71 30 -63 11 4 14 14 10 33 -3 19 1 33 13 44 18 16 20 15 47 -23 22 -31
36 -41 58 -41 l28 0 -46 54 c-25 30 -46 57 -46 60 0 3 14 21 31 41 35 39 35
43 2 37z"/>
</g>
</svg>
